<?xml version="1.0" encoding="UTF-8" standalone="no"?>
<svg
   width="27.094"
   height="27.094"
   viewBox="0 0 27.094 27.094"
   fill="none"
   version="1.1"
   id="svg23134"
   sodipodi:docname="behance.svg"
   inkscape:version="1.2.2 (b0a8486541, 2022-12-01)"
   xmlns:inkscape="http://www.inkscape.org/namespaces/inkscape"
   xmlns:sodipodi="http://sodipodi.sourceforge.net/DTD/sodipodi-0.dtd"
   xmlns="http://www.w3.org/2000/svg"
   xmlns:svg="http://www.w3.org/2000/svg">
  <defs
     id="defs23138" />
  <sodipodi:namedview
     id="namedview23136"
     pagecolor="#ffffff"
     bordercolor="#000000"
     borderopacity="0.25"
     inkscape:showpageshadow="2"
     inkscape:pageopacity="0.0"
     inkscape:pagecheckerboard="0"
     inkscape:deskcolor="#d1d1d1"
     showgrid="false"
     inkscape:zoom="20.086355"
     inkscape:cx="12.869433"
     inkscape:cy="15.657395"
     inkscape:window-width="1920"
     inkscape:window-height="1010"
     inkscape:window-x="0"
     inkscape:window-y="0"
     inkscape:window-maximized="1"
     inkscape:current-layer="svg23134" />
  <path
     d="m 20.088783,22.045307 c -2.7736,-0.3379 -4.4921,-1.8246 -5.1522,-4.4571 -0.1334,-0.5321 -0.1449,-0.6608 -0.1466,-1.6325 -0.002,-0.8348 0.0186,-1.14827 0.0959,-1.50309 0.335,-1.53863 0.9351,-2.69991 1.8453,-3.57076 1.1569,-1.1069596 2.5316,-1.5997296 4.4558,-1.5969396 0.7997,0.002 1.2519,0.05267 1.8816,0.21433 2.0918,0.5369596 3.4468,2.1575696 3.8534,4.6089096 0.0964,0.58123 0.1575,1.81415 0.1067,2.15305 l -0.0372,0.2483 h -4.3216 -4.3216 v 0.3054 c 0,0.9832 0.5966,1.9484 1.4411,2.3313 0.9188,0.4166 2.284,0.4058 3.1741,-0.0252 0.5099,-0.2469 0.9736,-0.8556 0.9749,-1.2797 v -0.1715 h 1.4768 1.4767 v 0.2591 c 0,0.1424 -0.0335,0.4332 -0.0744,0.6461 -0.3453,1.7947 -1.6253,2.9235 -3.8266,3.3747 -0.5829,0.1195 -2.2544,0.1745 -2.9026,0.0956 z m 3.6911,-7.92236 c -0.0026,-0.55154 -0.3351,-1.32975 -0.7422,-1.7369 -0.9074,-0.90741 -2.7449,-0.88485 -3.7473,0.04604 -0.4347,0.40366 -0.843,1.11815 -0.9663,1.69086 l -0.0369,0.17141 h 2.7468 2.7467 v -0.17141 z M 0.04700059,13.371347 V 5.0118074 H 4.6750826 c 3.81085,1.794e-4 4.7119,0.013828 5.1027,0.077477 1.5405004,0.250548 2.6460004,1.005423 3.2461004,2.216563 0.3422,0.69049 0.4356,1.13178 0.4411,2.08332 0.0042,0.7173296 -0.0104,0.8659496 -0.1186,1.2130596 -0.3138,1.00609 -0.9882,1.67101 -1.9863,1.95834 -0.2496,0.07186 -0.2821,0.09183 -0.1535,0.0948 0.2801,0.0064 0.9774,0.2085 1.2301,0.35643 0.3656,0.21397 0.7821,0.63421 1.0086,1.01781 0.678,1.148 0.8297,3.0584 0.3612,4.5457 -0.5133,1.6295 -1.9593,2.7509 -3.9669004,3.0765 -0.4019,0.0652 -1.2709,0.0785 -5.13812,0.0787 H 0.04700059 Z m 9.28248201,5.28506 c 0.6726004,-0.2583 1.0632004,-0.802 1.1677004,-1.6256 0.1501,-1.1832 -0.245,-2.14955 -1.0440004,-2.55405 l -0.3083,-0.15603 -2.62388,-0.01557 -2.62385,-0.01547 v 2.24652 2.2466 l 2.59748,-0.0176 c 2.30739,-0.0157 2.62403,-0.0278 2.83485,-0.1088 z m -0.25733,-7.02771 c 0.47923,-0.1691 0.74653,-0.59884 0.84343,-1.35595 0.1321004,-1.0328696 -0.138,-1.8582596 -0.7078,-2.1628296 -0.21901,-0.11707 -0.24505,-0.11828 -2.76586,-0.13325 l -2.54477,-0.01518 v 1.87424 1.8742396 h 2.47221 c 2.09301,0 2.50758,-0.01248 2.70279,-0.08127 z M 17.592383,8.0357474 c -0.0194,-0.01934 -0.0352,-0.48221 -0.0352,-1.02852 v -0.99328 h 3.4546 3.4546 v 1.02842 1.02852 h -3.4195 c -1.8806,0 -3.4352,-0.01572 -3.4545,-0.03514 z"
     fill="#3f3f3f"
     id="path23132" />
</svg>
