<svg width="33" height="32" viewBox="0 0 33 32" fill="none" xmlns="http://www.w3.org/2000/svg">
<path d="M15.4357 31.9325C13.0245 31.7027 10.6123 30.8992 8.56316 29.6432C6.5028 28.3804 4.51797 26.3961 3.25482 24.3363C0.376302 19.6422 0.12675 13.775 2.59587 8.84375C3.89495 6.24929 6.08057 3.87034 8.56316 2.34871C13.2584 -0.529082 19.1271 -0.778571 24.0595 1.68993C26.6546 2.98868 29.0342 5.17369 30.5562 7.65566C33.4347 12.3497 33.6843 18.217 31.2151 23.1482C29.9161 25.7426 27.7304 28.1216 25.2479 29.6432C22.3416 31.4246 18.7927 32.2525 15.4357 31.9325ZM19.0633 29.2535C20.0069 29.0928 20.9558 28.831 21.8054 28.4967L22.4659 28.2368L22.4307 28.0409C21.9262 25.2297 21.1885 22.4735 20.226 19.8041C19.757 18.5034 19.7806 18.5596 19.7049 18.5596C19.5771 18.5596 18.3581 19.0178 17.6033 19.3494C14.5478 20.692 11.3814 23.0824 9.08868 25.7773L8.50712 26.4609L8.68788 26.6098C9.07425 26.9279 10.2722 27.6872 10.8219 27.9624C12.5214 28.8133 13.8756 29.1856 16.0612 29.4027C16.6427 29.4605 18.3446 29.376 19.0633 29.2535ZM25.4028 26.3801C27.6717 24.5609 29.4121 21.7313 30.0353 18.8483C30.1088 18.5084 30.1552 18.2166 30.1385 18.1999C30.0006 18.062 27.5122 17.7165 26.2245 17.6565C24.8958 17.5945 22.3468 17.8028 22.3468 17.9734C22.3468 18.0173 22.4999 18.4838 22.6869 19.0099C23.4391 21.1257 24.144 23.613 24.5749 25.6722C24.7062 26.2998 24.8247 26.8133 24.8381 26.8133C24.8516 26.8133 25.1056 26.6184 25.4028 26.3801ZM7.06099 24.2028C8.28779 22.7857 9.45013 21.6471 10.7137 20.6251C13.0529 18.733 15.5168 17.3235 18.0938 16.4033C18.455 16.2743 18.7575 16.1628 18.7661 16.1554C18.7876 16.137 18.1754 14.7867 17.7945 14.0125C17.6215 13.661 17.4678 13.3373 17.453 13.2933C17.4327 13.2334 17.2714 13.2638 16.8061 13.4154C14.7935 14.0713 12.2758 14.6419 9.99233 14.9596C8.03054 15.2325 5.55662 15.4332 4.15367 15.4332H3.43938L3.48237 16.3854C3.54993 17.8821 3.73914 18.9446 4.17589 20.2791C4.42265 21.0332 5.11013 22.4853 5.52281 23.1242C5.8617 23.6488 6.59636 24.6248 6.65234 24.6248C6.67614 24.6248 6.86004 24.4349 7.06099 24.2028ZM30.3104 15.1362C30.2307 13.9181 29.8551 12.2104 29.4335 11.15C28.9778 10.0037 28.3083 8.80963 27.6181 7.9123L27.34 7.55077L27.1106 7.74359C26.3181 8.40977 25.2854 9.21811 24.7798 9.56785C23.5434 10.4232 21.7849 11.4148 20.4705 11.9977C20.1437 12.1426 19.8691 12.2669 19.8603 12.2739C19.8515 12.281 20.0502 12.7205 20.3019 13.2504C20.5537 13.7804 20.8846 14.5032 21.0373 14.8568C21.3115 15.4918 21.3171 15.4993 21.5024 15.4669C23.1262 15.1831 24.3152 15.0986 26.129 15.1381C27.6154 15.1705 28.5846 15.2605 29.5814 15.4587C29.8162 15.5054 30.0826 15.547 30.1732 15.551L30.338 15.5583L30.3104 15.1362ZM6.96104 12.7108C9.32473 12.5055 11.3385 12.1847 13.4343 11.6796C14.4623 11.4318 16.0732 10.9713 16.1378 10.9066C16.1898 10.8547 15.2149 9.17778 14.2616 7.67966C13.3993 6.32457 12.7485 5.36857 11.9766 4.32332L11.5067 3.68693L10.8444 4.01949C8.25302 5.32049 6.14021 7.47067 4.83039 10.1397C4.46721 10.8798 4.02212 12.0695 3.87008 12.7067L3.82691 12.8877L4.87801 12.8441C5.45609 12.8201 6.39345 12.7601 6.96104 12.7108ZM20.0639 9.33902C22.083 8.36103 23.6651 7.32603 25.3419 5.88621L25.5538 5.70424L24.9979 5.29263C23.0845 3.87604 21.1679 3.07146 18.8227 2.70031C17.8969 2.55381 15.8994 2.55283 14.9666 2.698C14.5711 2.75971 14.2234 2.83382 14.1941 2.86267C14.1647 2.89153 14.2516 3.06561 14.3873 3.24947C15.4143 4.64174 16.9723 7.05995 17.9664 8.80487C18.6665 10.034 18.6393 9.99492 18.7663 9.95153C18.8264 9.93097 19.4104 9.65514 20.0639 9.33856V9.33902Z" fill="#3F3F3F"/>
</svg>
