<svg width="34" height="34" viewBox="0 0 34 34" fill="none" xmlns="http://www.w3.org/2000/svg">
<path d="M10.9695 33.0425C9.95224 32.6646 8.57995 31.9563 7.61302 31.3103C3.54114 28.5898 0.928053 24.4829 0.14268 19.5694C-0.0487492 18.3717 -0.047375 15.7248 0.14573 14.5412C0.837826 10.2898 2.87961 6.61528 6.00257 4.00094C10.5515 0.192862 16.5587 -0.982597 22.1319 0.844758C30 3.42464 34.8626 11.3698 33.6171 19.6112C32.7809 25.1441 29.2513 29.9732 24.276 32.3911C23.1964 32.9158 22.2228 33.2867 21.9251 33.2867C21.6073 33.2867 21.3368 33.119 21.2044 32.84C21.0991 32.6181 21.0794 32.131 21.0784 29.727C21.0784 27.495 21.0513 26.7672 20.9578 26.3705C20.8216 25.7929 20.5972 25.3153 20.2616 24.8887L20.0294 24.5937L20.3731 24.5414C23.1077 24.1257 24.8482 23.3029 26.0338 21.8655C27.1087 20.5624 27.6893 18.6268 27.6904 16.3422C27.6904 14.5215 27.208 13.0338 26.2502 11.9096L25.9786 11.5908L26.113 11.112C26.4078 10.0612 26.3332 8.50525 25.9365 7.43328C25.8014 7.06813 25.7721 7.04145 25.4804 7.01741C24.7129 6.95412 23.1596 7.52276 21.82 8.35743L21.1494 8.77524L20.1672 8.57765C17.8208 8.10538 15.5212 8.13478 13.217 8.66662L12.651 8.79726L12.0611 8.41561C10.8213 7.61363 9.2237 7.00283 8.36614 7.00283C7.97057 7.00283 7.95162 7.02993 7.72216 7.92147C7.4548 8.96032 7.45336 10.4639 7.71911 11.2297L7.82892 11.5464L7.44258 12.0569C6.35919 13.4882 5.94018 15.2312 6.15419 17.4168C6.57438 21.7082 8.79995 23.908 13.3564 24.5358L13.7361 24.588L13.4656 24.9665C13.1422 25.4192 12.9605 25.8354 12.8255 26.4335L12.7255 26.877L12.2061 27.0533C11.1587 27.4089 10.2036 27.3778 9.34861 26.9605C8.82878 26.7067 8.36088 26.2527 7.86887 25.5247C7.15664 24.4707 6.30594 23.8446 5.42168 23.7234C5.0167 23.6678 4.50967 23.7972 4.44211 23.9732C4.37845 24.139 4.66666 24.4613 5.20646 24.8279C5.81518 25.2412 6.32681 25.8858 6.73716 26.7561C6.91484 27.133 7.10347 27.5321 7.15631 27.643C7.31717 27.9805 8.12373 28.7407 8.55019 28.9568C9.32176 29.3478 9.83301 29.4536 10.9208 29.4476C11.4751 29.4445 12.081 29.4044 12.2673 29.3583C12.4536 29.3122 12.6259 29.2943 12.6503 29.3187C12.6747 29.3431 12.6946 30.0861 12.6946 30.97C12.6946 32.7243 12.6354 33.0164 12.2435 33.1949C11.9382 33.334 11.6673 33.3016 10.97 33.0425H10.9695Z" fill="#3F3F3F"/>
</svg>
