<svg width="26" height="25" viewBox="0 0 26 25" fill="none" xmlns="http://www.w3.org/2000/svg">
<path d="M7.48096 24.5333C6.40999 24.3897 5.10489 23.8823 4.15883 23.2416C3.57289 22.8448 2.63521 21.9072 2.2384 21.3212C1.7941 20.6652 1.3248 19.6344 1.10169 18.8248L0.908691 18.1244V12.2857V6.447L1.10506 5.73055C1.32441 4.93032 1.78476 3.92195 2.24065 3.24313C2.62403 2.6723 3.56628 1.73285 4.15883 1.33057C4.81322 0.886294 5.844 0.416547 6.65517 0.193028L7.35562 0H13.1943H19.033L19.7335 0.193028C21.9986 0.817229 23.7659 2.26743 24.736 4.29778C25.512 5.92195 25.5327 6.15097 25.5014 12.7513L25.4759 18.1244L25.2849 18.8248C24.5305 21.5924 22.5028 23.6214 19.7379 24.3753L19.0331 24.5674L13.481 24.5805C10.4273 24.5876 7.72725 24.5663 7.48096 24.5333ZM19.1047 21.7205C20.5087 21.3165 21.6368 20.3891 22.2589 19.1273C22.7751 18.0804 22.7583 18.3099 22.7583 12.2857C22.7583 6.26154 22.7752 6.491 22.2589 5.44405C21.773 4.45859 21.0215 3.70697 20.036 3.22105C18.989 2.70483 19.2185 2.72169 13.1943 2.72169C7.17017 2.72169 7.39959 2.70481 6.35264 3.22105C5.36691 3.70711 4.61503 4.45921 4.13011 5.44405C3.62014 6.47973 3.6388 6.24834 3.61131 11.8917C3.59453 15.3331 3.61131 17.1713 3.66568 17.5756C3.8174 18.7209 4.2506 19.5996 5.0655 20.4145C5.83624 21.1853 6.74952 21.6554 7.7665 21.8051C8.01555 21.8418 10.5429 21.8653 13.4451 21.8578C18.1593 21.8456 18.7172 21.832 19.1047 21.7205ZM12.1442 18.489C11.0698 18.2837 10.045 17.8151 9.2002 17.1429C8.25963 16.3944 7.4381 15.1005 7.09431 13.826C6.87547 13.0146 6.87496 11.5604 7.09431 10.7454C7.30155 9.97169 7.80768 8.96702 8.3041 8.34396C9.09152 7.3556 10.3779 6.52662 11.6552 6.18456C12.4701 5.96629 13.9244 5.96681 14.7357 6.18456C16.9683 6.78677 18.7004 8.51859 19.2965 10.7444C19.5142 11.557 19.5142 13.0123 19.2965 13.8249C18.5666 16.5501 16.2125 18.4421 13.4104 18.5555C12.9433 18.5745 12.4637 18.5488 12.1453 18.488L12.1442 18.489ZM14.2793 15.942C15.9162 15.4362 16.9846 14.007 16.9894 12.3166C16.9924 11.2303 16.6307 10.3357 15.8875 9.59256C15.1544 8.85951 14.2499 8.48873 13.1943 8.48873C11.4544 8.48873 10.0178 9.57716 9.51287 11.2779C9.36238 11.7848 9.36238 12.7866 9.51287 13.2935C9.90094 14.6008 10.8061 15.5222 12.1197 15.9474C12.6761 16.1275 13.6871 16.1249 14.2793 15.942ZM19.3912 6.59653C18.6843 6.28236 18.539 5.42228 19.0983 4.86298C19.4106 4.55062 19.7712 4.48644 20.2048 4.66612C21.0129 5.00103 21.0776 6.09816 20.3151 6.53531C19.999 6.71654 19.705 6.736 19.3912 6.59653Z" fill="#3F3F3F"/>
</svg>
