<?xml version="1.0" encoding="UTF-8" standalone="no"?>
<svg
   width="24"
   height="24"
   viewBox="0 0 24 24"
   fill="none"
   version="1.1"
   id="svg23317"
   sodipodi:docname="linkedin.svg"
   inkscape:version="1.2.2 (b0a8486541, 2022-12-01)"
   xmlns:inkscape="http://www.inkscape.org/namespaces/inkscape"
   xmlns:sodipodi="http://sodipodi.sourceforge.net/DTD/sodipodi-0.dtd"
   xmlns="http://www.w3.org/2000/svg"
   xmlns:svg="http://www.w3.org/2000/svg">
  <defs
     id="defs23321" />
  <sodipodi:namedview
     id="namedview23319"
     pagecolor="#ffffff"
     bordercolor="#000000"
     borderopacity="0.25"
     inkscape:showpageshadow="2"
     inkscape:pageopacity="0.0"
     inkscape:pagecheckerboard="0"
     inkscape:deskcolor="#d1d1d1"
     showgrid="false"
     inkscape:zoom="22.327879"
     inkscape:cx="8.7558698"
     inkscape:cy="16.011373"
     inkscape:window-width="1920"
     inkscape:window-height="1010"
     inkscape:window-x="0"
     inkscape:window-y="0"
     inkscape:window-maximized="1"
     inkscape:current-layer="svg23317" />
  <path
     d="M 0.4053,15.8162 V 8.13239 H 2.88756 5.36983 V 15.8162 23.5 H 2.88756 0.4053 Z m 8.06063,0 V 8.13239 h 2.40217 2.4022 v 1.0279 c 0,0.56538 0.0179,1.02777 0.04,1.02752 0.022,0 0.1318,-0.13764 0.244,-0.30533 0.299,-0.44672 0.578,-0.73292 1.045,-1.07172 1.0805,-0.78391 2.4423,-1.1533 3.9291,-1.06575 3.124,0.18396 4.7243,1.57697 5.2571,4.57619 C 23.9683,13.3504 24,14.3338 24,18.9812 V 23.5 h -2.4789 -2.4788 l -0.021,-4.5358 c -0.0204,-4.424 -0.0237,-4.5476 -0.1359,-5.0149 -0.3374,-1.4057 -1.1115,-2.0111 -2.5724,-2.0117 -0.7495,0 -1.5501,0.3054 -1.9768,0.7549 -0.5195,0.5473 -0.7653,1.2621 -0.851,2.4743 -0.0292,0.4137 -0.0535,2.4579 -0.054,4.5426 V 23.5 H 10.949 8.46677 Z M 2.15413,5.92103 C 1.81467,5.83888 1.24266,5.53286 0.940971,5.27196 0.583679,4.96296 0.289436,4.53149 0.129362,4.08186 -0.0431206,3.59733 -0.0431206,2.85071 0.129362,2.3662 0.392917,1.62587 0.918086,1.067492 1.68648,0.710664 L 2.14023,0.5 H 2.86589 3.5916 l 0.50803,0.242819 c 0.40366,0.192934 0.57501,0.311704 0.83358,0.577833 1.06702,1.098238 1.06702,2.708438 0,3.806658 C 4.67559,5.39249 4.50305,5.51239 4.10535,5.70249 L 3.60292,5.94256 2.97834,5.95603 C 2.63481,5.96341 2.26392,5.9476 2.15413,5.92103 Z"
     fill="#3f3f3f"
     id="path23315" />
</svg>
